<svg width="44" height="29" viewBox="0 0 44 29" fill="none" xmlns="http://www.w3.org/2000/svg">
<path d="M44 19C44 24.5228 39.5228 29 34 29C28.4772 29 24 24.5228 24 19C24 13.4772 28.4772 9 34 9C39.5228 9 44 13.4772 44 19Z" fill="#1C62CD"/>
<path d="M33.5439 23V17.0381H33.5195L31.6787 18.3467V17.2725L33.5342 15.9541H34.6133V23H33.5439Z" fill="white"/>
<path d="M29.999 0L29.0703 2.5H26.659L22.3165 17.5H5.76777L-0.000976562 3.75H21.014L20.309 6.25H3.75902L7.43027 15H20.4653L24.7553 0H29.999ZM10.624 18.75C9.58902 18.75 8.74902 19.59 8.74902 20.625C8.74902 21.6612 9.58902 22.5 10.624 22.5C11.659 22.5 12.499 21.6612 12.499 20.625C12.499 19.59 11.659 18.75 10.624 18.75ZM19.249 10L16.874 18.75C15.839 18.75 14.999 19.5888 14.999 20.625C14.999 21.6612 15.839 22.5 16.874 22.5C17.909 22.5 18.749 21.6612 18.749 20.625C18.749 19.59 17.909 18.75 16.874 18.75L19.249 10Z" fill="#2F3035"/>
</svg>
